# xmcd
#
# Track frame offsets: 
#        150
#        16786
#        39725
#        57546
#        75495
#        97231
#        118128
#        152971
#        160722
#        181673
#        197732
#        213556
#        229223
#        238591
#
# Disc length: 3538 seconds
#
# Revision: 1
# Processed by: cddbd v1.5.2PL0 Copyright (c) Steve Scherf et al.
# Submitted via: ExactAudioCopy v0.95a4
#
DISCID=ba0dd00e
DTITLE=Hans Theesink - 70 Birthday Bash [CD2]
DYEAR=2019
DGENRE=Blues
TTITLE0=Running Home
TTITLE1=Leaving At Daybreak
TTITLE2=Old Man Trouble
TTITLE3=If I Needed You
TTITLE4=Stop That Alabama Bus
TTITLE5=Man With A Broken Heart
TTITLE6=St. James Infirmary
TTITLE7=Sabela
TTITLE8=Awarakadawara
TTITLE9=Lindschi
TTITLE10=Gö Du Bleibst Heut Nacht Bei Mir
TTITLE11=Sweet Home Chicago
TTITLE12=Glory Of Love
TTITLE13=Slow Train
EXTD=
EXTT0=
EXTT1=
EXTT2=
EXTT3=
EXTT4=
EXTT5=
EXTT6=
EXTT7=
EXTT8=
EXTT9=
EXTT10=
EXTT11=
EXTT12=
EXTT13=
PLAYORDER=
